<svg width="323" height="269" viewBox="0 0 323 269" fill="none" xmlns="http://www.w3.org/2000/svg">
<rect opacity="0.33" x="1.16602" y="0.5" width="321" height="268" rx="5.5" stroke="url(#paint0_linear_1729_4742)"/>
<path opacity="0.05" d="M305.381 257H167.619C163.964 257 161 254.476 161 251.363V166.637C161 163.524 163.963 161 167.619 161H305.381C309.036 161 312 163.524 312 166.637V251.363C312 254.476 309.036 257 305.381 257Z" fill="url(#paint1_linear_1729_4742)"/>
<rect opacity="0.2" x="242" y="189" width="52" height="3" rx="1.5" fill="#B9ADF1"/>
<rect opacity="0.2" x="250" y="218" width="18" height="3" rx="1.5" fill="#B9ADF1"/>
<rect opacity="0.2" x="250" y="229" width="18" height="3" rx="1.5" fill="#B9ADF1"/>
<rect opacity="0.2" x="242" y="196" width="52" height="3" rx="1.5" fill="#B9ADF1"/>
<rect opacity="0.2" x="242" y="203" width="52" height="3" rx="1.5" fill="#B9ADF1"/>
<path d="M202.5 248C185.682 248 172 234.318 172 217.5C172 200.682 185.682 187 202.5 187C219.318 187 233 200.682 233 217.5C233 234.318 219.318 248 202.5 248ZM202.5 190.217C187.456 190.217 175.217 202.457 175.217 217.5C175.217 232.544 187.457 244.783 202.5 244.783C217.543 244.783 229.783 232.543 229.783 217.5C229.783 202.456 217.544 190.217 202.5 190.217Z" fill="url(#paint2_linear_1729_4742)"/>
<path d="M202.499 241.351C189.348 241.351 178.648 230.651 178.648 217.499C178.648 204.347 189.348 193.648 202.499 193.648C215.65 193.648 226.35 204.348 226.35 217.499C226.35 230.651 215.651 241.351 202.499 241.351ZM202.499 196.866C191.122 196.866 181.866 206.122 181.866 217.499C181.866 228.877 191.122 238.133 202.499 238.133C213.877 238.133 223.133 228.877 223.133 217.499C223.133 206.122 213.877 196.866 202.499 196.866Z" fill="url(#paint3_linear_1729_4742)"/>
<path opacity="0.5" d="M202.5 233.938C193.436 233.938 186.062 226.564 186.062 217.501C186.062 208.438 193.436 201.064 202.5 201.064C206.38 201.064 210.148 202.442 213.107 204.944C216.812 208.077 218.937 212.654 218.937 217.501C218.937 226.563 211.563 233.938 202.5 233.938ZM202.5 204.281C195.21 204.281 189.28 210.211 189.28 217.5C189.28 224.789 195.21 230.72 202.5 230.72C209.789 230.72 215.72 224.789 215.72 217.5C215.72 213.602 214.01 209.92 211.03 207.4C208.65 205.389 205.621 204.281 202.5 204.281Z" fill="white"/>
<path d="M202.5 248C185.682 248 172 234.318 172 217.5C172 200.682 185.682 187 202.5 187C203.118 187 203.742 187.019 204.354 187.055C205.241 187.109 205.917 187.871 205.864 188.758C205.811 189.644 205.05 190.319 204.162 190.268C203.613 190.235 203.055 190.218 202.501 190.218C187.457 190.218 175.218 202.457 175.218 217.501C175.218 232.545 187.457 244.783 202.501 244.783C212.437 244.783 221.596 239.373 226.404 230.665C226.834 229.887 227.813 229.606 228.589 230.034C229.367 230.464 229.649 231.442 229.22 232.22C223.846 241.953 213.608 248 202.5 248Z" fill="#EBBF52"/>
<path opacity="0.8" d="M202.499 241.351C189.348 241.351 178.648 230.651 178.648 217.499C178.648 205.662 187.125 195.751 198.804 193.934C199.686 193.795 200.504 194.398 200.641 195.276C200.777 196.154 200.176 196.976 199.299 197.112C189.197 198.684 181.865 207.258 181.865 217.499C181.865 228.877 191.122 238.133 202.499 238.133C212.846 238.133 221.643 230.408 222.962 220.162C223.076 219.281 223.881 218.658 224.763 218.772C225.644 218.885 226.267 219.692 226.153 220.573C224.629 232.419 214.46 241.351 202.499 241.351Z" fill="#B9ADF1"/>
<path d="M202.5 233.938C193.436 233.938 186.062 226.564 186.062 217.501C186.062 208.438 193.436 201.064 202.5 201.064L202.805 201.067C203.694 201.085 204.399 201.82 204.38 202.709C204.362 203.597 203.641 204.299 202.738 204.283L202.5 204.281C195.21 204.281 189.28 210.212 189.28 217.501C189.28 224.79 195.21 230.72 202.5 230.72C208.637 230.72 214.063 226.38 215.401 220.4C215.595 219.533 216.454 218.986 217.322 219.181C218.189 219.375 218.734 220.235 218.541 221.102C216.877 228.54 210.13 233.938 202.5 233.938Z" fill="#EBBF52"/>
<path d="M244.181 221.363C242.977 221.363 242 220.386 242 219.181C242 217.977 242.977 217 244.181 217C245.386 217 246.363 217.977 246.363 219.181C246.363 220.387 245.386 221.363 244.181 221.363Z" fill="#EBBF52"/>
<path d="M244.181 232.45C242.977 232.45 242 231.473 242 230.269C242 229.064 242.977 228.087 244.181 228.087C245.386 228.087 246.363 229.064 246.363 230.269C246.363 231.473 245.386 232.45 244.181 232.45Z" fill="#D4CBFD"/>
<path d="M237.181 170.336H173.586C172.481 170.336 171.586 171.231 171.586 172.336V174.064C171.586 175.169 172.481 176.064 173.586 176.064H237.182C238.286 176.064 239.182 175.169 239.182 174.064V172.336C239.182 171.231 238.286 170.336 237.181 170.336Z" fill="url(#paint4_linear_1729_4742)"/>
<path fill-rule="evenodd" clip-rule="evenodd" d="M6.66602 0C3.35231 0 0.666016 2.68629 0.666016 6V25H322.666V6C322.666 2.68629 319.98 0 316.666 0H6.66602ZM14.332 18C17.0935 18 19.332 15.7614 19.332 13C19.332 10.2386 17.0935 8 14.332 8C11.5706 8 9.33203 10.2386 9.33203 13C9.33203 15.7614 11.5706 18 14.332 18ZM35.332 13C35.332 15.7614 33.0935 18 30.332 18C27.5706 18 25.332 15.7614 25.332 13C25.332 10.2386 27.5706 8 30.332 8C33.0935 8 35.332 10.2386 35.332 13ZM46.332 18C49.0935 18 51.332 15.7614 51.332 13C51.332 10.2386 49.0935 8 46.332 8C43.5706 8 41.332 10.2386 41.332 13C41.332 15.7614 43.5706 18 46.332 18Z" fill="url(#paint5_linear_1729_4742)"/>
<path opacity="0.05" d="M305.445 148.633H19.2176C15.5976 148.633 12.6621 145.699 12.6621 142.078V43.5554C12.6621 39.9354 15.5968 37 19.2176 37H305.445C309.065 37 312 39.9346 312 43.5554V142.078C312 145.699 309.065 148.633 305.445 148.633Z" fill="url(#paint6_linear_1729_4742)"/>
<path d="M103.751 48.0437H28.7754C27.6708 48.0437 26.7754 48.9391 26.7754 50.0437V52.7365C26.7754 53.8411 27.6708 54.7365 28.7754 54.7365H103.751C104.855 54.7365 105.751 53.8411 105.751 52.7365V50.0437C105.751 48.9391 104.855 48.0437 103.751 48.0437Z" fill="url(#paint7_linear_1729_4742)"/>
<path d="M297.512 65.5564H26.9851C26.7702 65.5564 26.5957 65.382 26.5957 65.167C26.5957 64.952 26.7702 64.7776 26.9851 64.7776H297.512C297.727 64.7776 297.902 64.952 297.902 65.167C297.902 65.382 297.727 65.5564 297.512 65.5564Z" fill="#E7E5E6" fill-opacity="0.3"/>
<path d="M297.512 82.6577H26.9851C26.7702 82.6577 26.5957 82.4833 26.5957 82.2683C26.5957 82.0534 26.7702 81.8789 26.9851 81.8789H297.512C297.727 81.8789 297.902 82.0534 297.902 82.2683C297.902 82.4841 297.727 82.6577 297.512 82.6577Z" fill="#E7E5E6" fill-opacity="0.3"/>
<path d="M297.512 99.7615H26.9851C26.7702 99.7615 26.5957 99.587 26.5957 99.3721C26.5957 99.1571 26.7702 98.9827 26.9851 98.9827H297.512C297.727 98.9827 297.902 99.1571 297.902 99.3721C297.902 99.587 297.727 99.7615 297.512 99.7615Z" fill="#E7E5E6" fill-opacity="0.3"/>
<path d="M297.512 116.863H26.9851C26.7702 116.863 26.5957 116.688 26.5957 116.473C26.5957 116.258 26.7702 116.084 26.9851 116.084H297.512C297.727 116.084 297.902 116.258 297.902 116.473C297.902 116.688 297.727 116.863 297.512 116.863Z" fill="#E7E5E6" fill-opacity="0.3"/>
<path d="M297.512 133.963H26.9851C26.7702 133.963 26.5957 133.789 26.5957 133.574C26.5957 133.359 26.7702 133.184 26.9851 133.184H297.512C297.727 133.184 297.902 133.359 297.902 133.574C297.902 133.789 297.727 133.963 297.512 133.963Z" fill="#E7E5E6" fill-opacity="0.3"/>
<g opacity="0.2">
<path d="M36.384 79.9935L76.1038 103.348L115.824 83.277L155.544 107.112L195.264 75.748L234.984 86.003L260.686 107.769L293.749 90.8053H297.513V133.576H32.6191V80.5176L36.384 79.9935Z" fill="url(#paint8_linear_1729_4742)"/>
</g>
<path d="M155.57 107.584L115.803 83.7205L76.0844 103.79L75.9014 103.682L36.1816 80.3279L36.5773 79.6565L76.1132 102.903L115.835 82.8311L155.509 106.639L195.17 75.3215L195.357 75.3698L235.077 85.6247L234.882 86.3786L195.35 76.172L155.57 107.584Z" fill="url(#paint9_linear_1729_4742)"/>
<path opacity="0.4" d="M260.633 108.231L260.434 108.064L234.732 86.2969L235.236 85.7026L260.739 107.301L293.571 90.4559L293.927 91.149L260.633 108.231Z" fill="#B9ADF1"/>
<path d="M40.1454 79.509C40.1454 81.5877 38.46 83.2731 36.3813 83.2731C34.3026 83.2731 32.6172 81.5877 32.6172 79.509C32.6172 77.4303 34.3026 75.7449 36.3813 75.7449C38.46 75.7449 40.1454 77.4303 40.1454 79.509Z" fill="#B9ADF1"/>
<path d="M36.382 83.6633C34.0915 83.6633 32.2285 81.7995 32.2285 79.509C32.2285 77.2192 34.0915 75.3555 36.382 75.3555C38.6718 75.3555 40.5356 77.2192 40.5356 79.509C40.5356 81.7995 38.6718 83.6633 36.382 83.6633ZM36.382 76.1343C34.5206 76.1343 33.0073 77.6484 33.0073 79.509C33.0073 81.3704 34.5214 82.8845 36.382 82.8845C38.2435 82.8845 39.7567 81.3704 39.7567 79.509C39.7567 77.6484 38.2427 76.1343 36.382 76.1343Z" fill="#B9ADF1"/>
<path d="M79.8661 103.348C79.8661 105.426 78.1807 107.112 76.102 107.112C74.0233 107.112 72.3379 105.426 72.3379 103.348C72.3379 101.269 74.0233 99.5835 76.102 99.5835C78.1807 99.5835 79.8661 101.268 79.8661 103.348Z" fill="#B9ADF1"/>
<path d="M76.1027 107.5C73.813 107.5 71.9492 105.637 71.9492 103.346C71.9492 101.056 73.813 99.1926 76.1027 99.1926C78.3933 99.1926 80.2571 101.056 80.2571 103.346C80.2571 105.637 78.3933 107.5 76.1027 107.5ZM76.1027 99.9715C74.2413 99.9715 72.7281 101.485 72.7281 103.346C72.7281 105.208 74.2413 106.722 76.1027 106.722C77.9642 106.722 79.4782 105.208 79.4782 103.346C79.4782 101.486 77.9634 99.9715 76.1027 99.9715Z" fill="#B9ADF1"/>
<path d="M119.583 83.2756C119.583 85.3543 117.898 87.0397 115.819 87.0397C113.74 87.0397 112.055 85.3543 112.055 83.2756C112.055 81.1969 113.74 79.5115 115.819 79.5115C117.898 79.5107 119.583 81.1961 119.583 83.2756Z" fill="#B9ADF1"/>
<path d="M115.82 87.4282C113.53 87.4282 111.666 85.5644 111.666 83.2747C111.666 80.9849 113.53 79.1204 115.82 79.1204C118.11 79.1204 119.974 80.9841 119.974 83.2747C119.974 85.5652 118.11 87.4282 115.82 87.4282ZM115.82 79.8992C113.959 79.8992 112.445 81.4132 112.445 83.2747C112.445 85.1361 113.959 86.6493 115.82 86.6493C117.682 86.6493 119.195 85.1353 119.195 83.2747C119.195 81.4132 117.681 79.8992 115.82 79.8992Z" fill="#B9ADF1"/>
<path d="M155.54 110.875C157.618 110.875 159.304 109.19 159.304 107.111C159.304 105.032 157.618 103.347 155.54 103.347C153.461 103.347 151.775 105.032 151.775 107.111C151.775 109.19 153.461 110.875 155.54 110.875Z" fill="#B9ADF1"/>
<path d="M155.54 111.264C153.25 111.264 151.387 109.4 151.387 107.11C151.387 104.82 153.25 102.956 155.54 102.956C157.831 102.956 159.695 104.82 159.695 107.11C159.695 109.401 157.831 111.264 155.54 111.264ZM155.54 103.735C153.679 103.735 152.166 105.249 152.166 107.11C152.166 108.972 153.679 110.485 155.54 110.485C157.402 110.485 158.916 108.972 158.916 107.11C158.916 105.249 157.401 103.735 155.54 103.735Z" fill="#B9ADF1"/>
<path d="M199.024 75.7458C199.024 77.8245 197.339 79.5099 195.26 79.5099C193.181 79.5099 191.496 77.8245 191.496 75.7458C191.496 73.6671 193.181 71.9817 195.26 71.9817C197.339 71.9817 199.024 73.6671 199.024 75.7458Z" fill="#B9ADF1"/>
<path d="M195.262 79.8993C192.971 79.8993 191.107 78.0356 191.107 75.7458C191.107 73.4553 192.971 71.5923 195.262 71.5923C197.552 71.5923 199.415 73.456 199.415 75.7458C199.415 78.0364 197.552 79.8993 195.262 79.8993ZM195.262 72.3711C193.4 72.3711 191.886 73.8852 191.886 75.7458C191.886 77.6064 193.4 79.1205 195.262 79.1205C197.123 79.1205 198.636 77.6064 198.636 75.7458C198.636 73.8852 197.122 72.3711 195.262 72.3711Z" fill="#B9ADF1"/>
<path d="M238.745 86.0017C238.745 88.0804 237.06 89.7658 234.981 89.7658C232.902 89.7658 231.217 88.0804 231.217 86.0017C231.217 83.923 232.902 82.2375 234.981 82.2375C237.06 82.2368 238.745 83.9222 238.745 86.0017Z" fill="#B9ADF1"/>
<path d="M234.982 90.1545C232.692 90.1545 230.828 88.2908 230.828 86.001C230.828 83.7112 232.692 81.8467 234.982 81.8467C237.272 81.8467 239.136 83.7104 239.136 86.001C239.136 88.2915 237.272 90.1545 234.982 90.1545ZM234.982 82.6255C233.12 82.6255 231.607 84.1396 231.607 86.001C231.607 87.8624 233.12 89.3757 234.982 89.3757C236.843 89.3757 238.357 87.8616 238.357 86.001C238.357 84.1396 236.842 82.6255 234.982 82.6255Z" fill="#B9ADF1"/>
<path d="M264.448 107.767C264.448 109.846 262.763 111.531 260.684 111.531C258.605 111.531 256.92 109.846 256.92 107.767C256.92 105.689 258.605 104.003 260.684 104.003C262.763 104.003 264.448 105.689 264.448 107.767Z" fill="#B9ADF1"/>
<path d="M260.685 111.921C258.395 111.921 256.531 110.058 256.531 107.767C256.531 105.478 258.395 103.614 260.685 103.614C262.975 103.614 264.839 105.478 264.839 107.767C264.839 110.057 262.975 111.921 260.685 111.921ZM260.685 104.393C258.823 104.393 257.31 105.906 257.31 107.767C257.31 109.629 258.823 111.142 260.685 111.142C262.546 111.142 264.06 109.629 264.06 107.767C264.06 105.906 262.545 104.393 260.685 104.393Z" fill="#B9ADF1"/>
<path d="M293.748 94.5663C295.827 94.5663 297.513 92.8811 297.513 90.8022C297.513 88.7233 295.827 87.0381 293.748 87.0381C291.67 87.0381 289.984 88.7233 289.984 90.8022C289.984 92.8811 291.67 94.5663 293.748 94.5663Z" fill="#B9ADF1"/>
<path d="M293.75 94.9565C291.459 94.9565 289.596 93.0928 289.596 90.8022C289.596 88.5124 291.459 86.6487 293.75 86.6487C296.04 86.6487 297.904 88.5124 297.904 90.8022C297.904 93.0928 296.04 94.9565 293.75 94.9565ZM293.75 87.4275C291.889 87.4275 290.375 88.9416 290.375 90.8022C290.375 92.6628 291.889 94.1777 293.75 94.1777C295.611 94.1777 297.125 92.6636 297.125 90.8022C297.125 88.9416 295.611 87.4275 293.75 87.4275Z" fill="#B9ADF1"/>
<path opacity="0.05" d="M135.389 256.548H18.6109C15.5125 256.548 13 254.036 13 250.937V166.611C13 163.512 15.5118 161 18.6109 161H135.389C138.488 161 141 163.512 141 166.611V250.937C141 254.036 138.488 256.548 135.389 256.548Z" fill="url(#paint10_linear_1729_4742)"/>
<path d="M89.1815 170.336H25.5859C24.4814 170.336 23.5859 171.231 23.5859 172.336V174.064C23.5859 175.169 24.4814 176.064 25.5859 176.064H89.1815C90.2861 176.064 91.1815 175.169 91.1815 174.064V172.336C91.1815 171.231 90.2861 170.336 89.1815 170.336Z" fill="url(#paint11_linear_1729_4742)"/>
<path d="M127.673 189.109H26.3266C24.8541 189.109 23.6602 187.915 23.6602 186.443C23.6602 184.97 24.8541 183.776 26.3266 183.776H127.672C129.145 183.776 130.339 184.97 130.339 186.443C130.339 187.915 129.145 189.109 127.673 189.109Z" fill="url(#paint12_linear_1729_4742)"/>
<path d="M88.8981 189.109H26.3266C24.8541 189.109 23.6602 187.915 23.6602 186.443C23.6602 184.97 24.8541 183.776 26.3266 183.776H88.8981C90.3706 183.776 91.5645 184.97 91.5645 186.443C91.5645 187.915 90.3706 189.109 88.8981 189.109Z" fill="#EBBF52"/>
<path opacity="0.8" d="M127.673 203.775H26.3266C24.8541 203.775 23.6602 202.581 23.6602 201.108C23.6602 199.636 24.8541 198.442 26.3266 198.442H127.672C129.145 198.442 130.339 199.636 130.339 201.108C130.339 202.581 129.145 203.775 127.673 203.775Z" fill="url(#paint13_linear_1729_4742)"/>
<path d="M65.0114 203.775H26.3266C24.8541 203.775 23.6602 202.581 23.6602 201.108C23.6602 199.636 24.8541 198.442 26.3266 198.442H65.0107C66.4833 198.442 67.6772 199.636 67.6772 201.108C67.6778 202.581 66.4839 203.775 65.0114 203.775Z" fill="#B9ADF1"/>
<path opacity="0.5" d="M127.673 218.441H26.3266C24.8541 218.441 23.6602 217.247 23.6602 215.774C23.6602 214.302 24.8541 213.108 26.3266 213.108H127.672C129.145 213.108 130.339 214.302 130.339 215.774C130.339 217.247 129.145 218.441 127.673 218.441Z" fill="url(#paint14_linear_1729_4742)"/>
<path opacity="0.8" d="M121.285 218.441H26.3266C24.8541 218.441 23.6602 217.247 23.6602 215.774C23.6602 214.302 24.8541 213.108 26.3266 213.108H121.284C122.757 213.108 123.95 214.302 123.95 215.774C123.95 217.247 122.757 218.441 121.285 218.441Z" fill="#EBBF52"/>
<path opacity="0.4" d="M127.673 233.106H26.3266C24.8541 233.106 23.6602 231.912 23.6602 230.439C23.6602 228.967 24.8541 227.773 26.3266 227.773H127.672C129.145 227.773 130.339 228.967 130.339 230.439C130.339 231.913 129.145 233.106 127.673 233.106Z" fill="url(#paint15_linear_1729_4742)"/>
<path opacity="0.5" d="M44.4018 233.106H26.3266C24.8541 233.106 23.6602 231.912 23.6602 230.439C23.6602 228.967 24.8541 227.773 26.3266 227.773H44.4018C45.8743 227.773 47.0682 228.967 47.0682 230.439C47.0682 231.913 45.8743 233.106 44.4018 233.106Z" fill="#B9ADF1"/>
<path opacity="0.2" d="M127.673 247.771H26.3266C24.8541 247.771 23.6602 246.577 23.6602 245.105C23.6602 243.632 24.8541 242.438 26.3266 242.438H127.672C129.145 242.438 130.339 243.632 130.339 245.105C130.339 246.578 129.145 247.771 127.673 247.771Z" fill="url(#paint16_linear_1729_4742)"/>
<path opacity="0.2" d="M103.203 247.771H26.3266C24.8541 247.771 23.6602 246.577 23.6602 245.105C23.6602 243.632 24.8541 242.438 26.3266 242.438H103.203C104.675 242.438 105.869 243.632 105.869 245.105C105.869 246.578 104.676 247.771 103.203 247.771Z" fill="#EBBF52"/>
<defs>
<linearGradient id="paint0_linear_1729_4742" x1="-19.668" y1="-27.4075" x2="191.548" y2="225.291" gradientUnits="userSpaceOnUse">
<stop stop-color="#DEB550"/>
<stop offset="1" stop-color="#DEB550" stop-opacity="0"/>
</linearGradient>
<linearGradient id="paint1_linear_1729_4742" x1="161.17" y1="161" x2="288.593" y2="199.401" gradientUnits="userSpaceOnUse">
<stop stop-color="#B9ADF1"/>
<stop offset="1" stop-color="#B9ADF1" stop-opacity="0"/>
</linearGradient>
<linearGradient id="paint2_linear_1729_4742" x1="134" y1="248" x2="240.5" y2="177.5" gradientUnits="userSpaceOnUse">
<stop stop-color="white"/>
<stop offset="1" stop-color="white" stop-opacity="0"/>
</linearGradient>
<linearGradient id="paint3_linear_1729_4742" x1="162.5" y1="234.5" x2="248" y2="182.5" gradientUnits="userSpaceOnUse">
<stop stop-color="white"/>
<stop offset="1" stop-color="white" stop-opacity="0"/>
</linearGradient>
<linearGradient id="paint4_linear_1729_4742" x1="159" y1="159" x2="247" y2="176" gradientUnits="userSpaceOnUse">
<stop stop-color="#D4CBFD"/>
<stop offset="1" stop-color="#D4CBFD" stop-opacity="0"/>
</linearGradient>
<linearGradient id="paint5_linear_1729_4742" x1="0.666012" y1="-9.54862" x2="300.765" y2="72.2886" gradientUnits="userSpaceOnUse">
<stop stop-color="#EBBF52"/>
<stop offset="1" stop-color="#EBBF52" stop-opacity="0"/>
</linearGradient>
<linearGradient id="paint6_linear_1729_4742" x1="13" y1="37" x2="231" y2="149" gradientUnits="userSpaceOnUse">
<stop stop-color="#B9ADF1"/>
<stop offset="1" stop-color="#B9ADF1" stop-opacity="0"/>
</linearGradient>
<linearGradient id="paint7_linear_1729_4742" x1="12" y1="48" x2="102" y2="51" gradientUnits="userSpaceOnUse">
<stop stop-color="#B9ADF1"/>
<stop offset="1" stop-color="#B9ADF1" stop-opacity="0"/>
</linearGradient>
<linearGradient id="paint8_linear_1729_4742" x1="43.5" y1="76" x2="298" y2="134" gradientUnits="userSpaceOnUse">
<stop stop-color="#D4CBFD"/>
<stop offset="1" stop-color="#D4CBFD" stop-opacity="0"/>
</linearGradient>
<linearGradient id="paint9_linear_1729_4742" x1="21.5" y1="70.5" x2="284" y2="113" gradientUnits="userSpaceOnUse">
<stop stop-color="#B9ADF1"/>
<stop offset="1" stop-color="#B9ADF1" stop-opacity="0"/>
</linearGradient>
<linearGradient id="paint10_linear_1729_4742" x1="13.1445" y1="161" x2="123.686" y2="189.373" gradientUnits="userSpaceOnUse">
<stop stop-color="#B9ADF1"/>
<stop offset="1" stop-color="#B9ADF1" stop-opacity="0"/>
</linearGradient>
<linearGradient id="paint11_linear_1729_4742" x1="11" y1="159" x2="99" y2="176" gradientUnits="userSpaceOnUse">
<stop stop-color="#D4CBFD"/>
<stop offset="1" stop-color="#D4CBFD" stop-opacity="0"/>
</linearGradient>
<linearGradient id="paint12_linear_1729_4742" x1="20" y1="181" x2="144" y2="186" gradientUnits="userSpaceOnUse">
<stop stop-color="white"/>
<stop offset="1" stop-color="white" stop-opacity="0"/>
</linearGradient>
<linearGradient id="paint13_linear_1729_4742" x1="20" y1="195.665" x2="144" y2="200.665" gradientUnits="userSpaceOnUse">
<stop stop-color="white"/>
<stop offset="1" stop-color="white" stop-opacity="0"/>
</linearGradient>
<linearGradient id="paint14_linear_1729_4742" x1="20" y1="210.332" x2="144" y2="215.332" gradientUnits="userSpaceOnUse">
<stop stop-color="white"/>
<stop offset="1" stop-color="white" stop-opacity="0"/>
</linearGradient>
<linearGradient id="paint15_linear_1729_4742" x1="20" y1="224.997" x2="144" y2="229.997" gradientUnits="userSpaceOnUse">
<stop stop-color="white"/>
<stop offset="1" stop-color="white" stop-opacity="0"/>
</linearGradient>
<linearGradient id="paint16_linear_1729_4742" x1="20" y1="239.662" x2="144" y2="244.662" gradientUnits="userSpaceOnUse">
<stop stop-color="white"/>
<stop offset="1" stop-color="white" stop-opacity="0"/>
</linearGradient>
</defs>
</svg>
